<?xml version="1.0" encoding="utf-8"?>
<!-- Generator: Adobe Illustrator 24.0.1, SVG Export Plug-In . SVG Version: 6.00 Build 0)  -->
<svg version="1.1" id="Capa_1" xmlns="http://www.w3.org/2000/svg" xmlns:xlink="http://www.w3.org/1999/xlink" x="0px" y="0px"
	 viewBox="0 0 31 31" style="enable-background:new 0 0 31 31;" xml:space="preserve">
<g>
	<g>
		<path d="M31,19.4c-0.1-1.8-0.4-3.7-0.8-5.6c-0.5-1.8-1-3.4-1.7-4.7c-2.7-4.7-5.6-4-9.2-3.1c-1.1,0.3-2.3,0.6-3.6,0.7h-0.4
			c-1.2-0.1-2.4-0.4-3.6-0.7C8.2,5.1,5.3,4.3,2.6,9.1c-0.7,1.3-1.3,2.9-1.7,4.7c-0.5,1.9-0.8,3.8-0.8,5.6c-0.1,2,0.1,3.4,0.5,4.4
			c0.4,0.9,1,1.5,1.9,1.7c0.7,0.2,1.6,0.1,2.5-0.3c1.5-0.6,3.2-1.9,4.9-3.5c1.2-1.2,3.4-1.7,5.7-1.7s4.5,0.6,5.7,1.7
			c1.7,1.6,3.4,2.9,4.9,3.5c0.9,0.3,1.7,0.5,2.5,0.3c0.8-0.2,1.4-0.8,1.9-1.8C30.9,22.8,31.1,21.4,31,19.4z M29.1,23.3
			c-0.2,0.5-0.5,0.8-0.9,1c-0.4,0.1-1,0-1.6-0.2c-1.4-0.5-2.9-1.7-4.5-3.2c-1.5-1.5-4.1-2.2-6.6-2.2s-5.2,0.7-6.7,2.1
			c-1.6,1.5-3.2,2.7-4.5,3.2c-0.6,0.2-1.2,0.3-1.6,0.2c-0.4-0.1-0.7-0.4-0.9-1c-0.3-0.7-0.5-1.9-0.4-3.7c0.1-1.7,0.3-3.6,0.8-5.3
			c0.4-1.7,1-3.2,1.6-4.4C6,6,8.5,6.6,11.4,7.4c1.2,0.3,2.4,0.6,3.8,0.7c0,0,0,0,0.1,0h0.4c0,0,0,0,0.1,0c1.4-0.1,2.6-0.4,3.8-0.7
			C22.5,6.6,25,6,27.1,9.8c0.7,1.2,1.2,2.7,1.6,4.4c0.4,1.8,0.7,3.6,0.8,5.3C29.6,21.3,29.5,22.5,29.1,23.3z"/>
	</g>
</g>
<g>
	<g>
		<path d="M11.9,11.9c-0.4-0.3-0.8-0.6-1.4-0.7c0-0.5-0.3-1-0.6-1.4l0,0c-0.4-0.4-1-0.7-1.6-0.7S7.1,9.4,6.7,9.8
			c-0.3,0.3-0.6,0.8-0.7,1.4c-0.5,0-1,0.3-1.4,0.6l0,0c-0.4,0.4-0.7,1-0.7,1.6c0,0.6,0.3,1.2,0.7,1.6c0.4,0.4,0.8,0.6,1.4,0.7
			c0,0.5,0.3,1,0.7,1.4c0.4,0.4,1,0.7,1.6,0.7s1.2-0.3,1.6-0.7c0.3-0.4,0.6-0.8,0.7-1.4c0.5,0,1-0.3,1.4-0.7c0.4-0.4,0.7-1,0.7-1.6
			C12.6,12.8,12.3,12.3,11.9,11.9z M11,14c-0.2,0.2-0.3,0.2-0.6,0.2H9.9c-0.4,0-0.7,0.3-0.7,0.7v0.5c0,0.2-0.1,0.4-0.2,0.6
			c-0.2,0.2-0.3,0.2-0.6,0.2c-0.2,0-0.4-0.1-0.6-0.2c-0.2-0.2-0.2-0.3-0.2-0.6V15c0-0.4-0.3-0.7-0.7-0.7H6.2c-0.2,0-0.4-0.1-0.6-0.2
			c-0.1-0.1-0.2-0.3-0.2-0.5c0-0.2,0.1-0.4,0.2-0.6c0,0,0,0,0,0c0.2-0.1,0.3-0.2,0.5-0.2h0.5c0.4,0,0.7-0.3,0.7-0.7v-0.5
			c0-0.2,0.1-0.4,0.2-0.6c0.2-0.2,0.3-0.2,0.6-0.2c0.2,0,0.4,0.1,0.6,0.2c0,0,0,0,0,0c0.1,0.2,0.2,0.3,0.2,0.5v0.5
			c0,0.4,0.3,0.7,0.7,0.7h0.5c0.2,0,0.4,0.1,0.6,0.2c0.2,0.2,0.2,0.3,0.2,0.6C11.2,13.7,11.1,13.9,11,14z"/>
	</g>
</g>
<g>
	<g>
		<circle cx="22.2" cy="10.7" r="1.4"/>
	</g>
</g>
<g>
	<g>
		<circle cx="22.2" cy="16.2" r="1.4"/>
	</g>
</g>
<g>
	<g>
		<circle cx="19.5" cy="13.5" r="1.4"/>
	</g>
</g>
<g>
	<g>
		<circle cx="25" cy="13.5" r="1.4"/>
	</g>
</g>
</svg>
