<svg viewBox="0 0 63 63" version="1.1" xmlns="http://www.w3.org/2000/svg">
  <path
    fill="white"
    d="M20.9565 24.0802C21.7057 24.0802 22.3588 23.9891 22.9157 23.8068C23.4725 23.6144 23.9332 23.3461 24.2977 23.0019C24.6724 22.6475 24.9508 22.2223 25.133 21.7261C25.3153 21.2199 25.4064 20.6579 25.4064 20.0403C25.4064 19.4531 25.3153 18.9215 25.133 18.4456C24.9508 17.9698 24.6774 17.5648 24.3129 17.2306C23.9484 16.8965 23.4877 16.6434 22.9309 16.4713C22.374 16.289 21.7159 16.1979 20.9565 16.1979H17.9038V24.0802H20.9565ZM20.9565 13.0389C22.4246 13.0389 23.6953 13.211 24.7685 13.5553C25.8418 13.8995 26.7277 14.3804 27.4264 14.9981C28.125 15.6157 28.6414 16.3548 28.9755 17.2154C29.3197 18.0761 29.4919 19.0177 29.4919 20.0403C29.4919 21.1034 29.3147 22.0805 28.9603 22.9715C28.6059 23.8524 28.0744 24.6118 27.3656 25.2496C26.6569 25.8875 25.7659 26.3836 24.6926 26.738C23.6295 27.0924 22.3841 27.2696 20.9565 27.2696H17.9038V35H13.8184V13.0389H20.9565ZM47.7059 29.8211C47.9287 29.8211 48.1261 29.9071 48.2982 30.0793L49.9081 31.8258C49.0171 32.9294 47.9186 33.7749 46.6124 34.3621C45.3164 34.9494 43.7572 35.243 41.9347 35.243C40.3046 35.243 38.8364 34.9646 37.5303 34.4077C36.2343 33.8508 35.1256 33.0763 34.2042 32.084C33.2829 31.0918 32.5741 29.9071 32.078 28.5301C31.592 27.1531 31.349 25.6496 31.349 24.0194C31.349 22.3691 31.6122 20.8604 32.1387 19.4936C32.6652 18.1166 33.4044 16.9319 34.3561 15.9397C35.318 14.9474 36.4621 14.1779 37.7885 13.6312C39.1149 13.0743 40.583 12.7959 42.1929 12.7959C43.7926 12.7959 45.2101 13.0591 46.4454 13.5856C47.6907 14.1121 48.7488 14.8006 49.6196 15.6511L48.2527 17.5496C48.1717 17.6711 48.0654 17.7774 47.9337 17.8685C47.8122 17.9596 47.6401 18.0052 47.4174 18.0052C47.2655 18.0052 47.1086 17.9647 46.9466 17.8837C46.7846 17.7926 46.6074 17.6863 46.415 17.5648C46.2226 17.4331 45.9999 17.2914 45.7467 17.1395C45.4936 16.9876 45.2 16.8509 44.8659 16.7294C44.5317 16.5978 44.1419 16.4915 43.6964 16.4105C43.2611 16.3194 42.7548 16.2738 42.1777 16.2738C41.1956 16.2738 40.2944 16.451 39.4743 16.8054C38.6643 17.1496 37.9657 17.6559 37.3784 18.3241C36.7912 18.9823 36.3356 19.7923 36.0116 20.7541C35.6876 21.7059 35.5256 22.7943 35.5256 24.0194C35.5256 25.2547 35.6977 26.3533 36.0419 27.3151C36.3963 28.277 36.8722 29.087 37.4696 29.7451C38.0669 30.4033 38.7706 30.9095 39.5806 31.2639C40.3906 31.6081 41.2614 31.7803 42.1929 31.7803C42.7497 31.7803 43.2509 31.7499 43.6964 31.6891C44.1521 31.6284 44.5672 31.5322 44.9418 31.4006C45.3266 31.2689 45.686 31.1019 46.0201 30.8994C46.3644 30.6868 46.7036 30.4286 47.0377 30.1248C47.1389 30.0337 47.2452 29.9628 47.3566 29.9122C47.468 29.8514 47.5844 29.8211 47.7059 29.8211Z"
  />
  <path
    fill="white"
    d="M15.9234 43.4578V45.8392H18.939V47.0354H15.9234V50.3125H14.4212V42.2672H19.4954V43.4578H15.9234ZM28.3205 46.2898C28.3205 46.8796 28.2222 47.4267 28.0256 47.9312C27.8327 48.4319 27.5582 48.8659 27.2021 49.2331C26.846 49.6003 26.4176 49.8878 25.9169 50.0955C25.4161 50.2995 24.8597 50.4015 24.2477 50.4015C23.6394 50.4015 23.0849 50.2995 22.5841 50.0955C22.0834 49.8878 21.6531 49.6003 21.2933 49.2331C20.9372 48.8659 20.6609 48.4319 20.4643 47.9312C20.2677 47.4267 20.1694 46.8796 20.1694 46.2898C20.1694 45.7001 20.2677 45.1548 20.4643 44.6541C20.6609 44.1496 20.9372 43.7138 21.2933 43.3466C21.6531 42.9793 22.0834 42.6937 22.5841 42.4897C23.0849 42.282 23.6394 42.1781 24.2477 42.1781C24.6557 42.1781 25.0396 42.2264 25.3994 42.3228C25.7592 42.4155 26.0894 42.5491 26.3898 42.7234C26.6903 42.894 26.9592 43.1036 27.1966 43.3521C27.4377 43.5969 27.6417 43.8714 27.8086 44.1756C27.9755 44.4797 28.1016 44.8098 28.1869 45.1659C28.276 45.522 28.3205 45.8967 28.3205 46.2898ZM26.7904 46.2898C26.7904 45.8484 26.7311 45.4534 26.6124 45.1047C26.4937 44.7524 26.3249 44.4538 26.1061 44.2089C25.8872 43.9641 25.6201 43.7768 25.3049 43.647C24.9933 43.5172 24.6409 43.4523 24.2477 43.4523C23.8545 43.4523 23.5003 43.5172 23.185 43.647C22.8735 43.7768 22.6064 43.9641 22.3838 44.2089C22.165 44.4538 21.9962 44.7524 21.8775 45.1047C21.7588 45.4534 21.6995 45.8484 21.6995 46.2898C21.6995 46.7312 21.7588 47.1281 21.8775 47.4805C21.9962 47.8292 22.165 48.1259 22.3838 48.3707C22.6064 48.6118 22.8735 48.7973 23.185 48.9271C23.5003 49.0569 23.8545 49.1218 24.2477 49.1218C24.6409 49.1218 24.9933 49.0569 25.3049 48.9271C25.6201 48.7973 25.8872 48.6118 26.1061 48.3707C26.3249 48.1259 26.4937 47.8292 26.6124 47.4805C26.7311 47.1281 26.7904 46.7312 26.7904 46.2898ZM32.0662 46.0951C32.3481 46.0951 32.593 46.0599 32.8007 45.9894C33.0121 45.9189 33.1846 45.8225 33.3181 45.7001C33.4554 45.5739 33.5574 45.4256 33.6241 45.255C33.6909 45.0843 33.7243 44.897 33.7243 44.693C33.7243 44.285 33.5889 43.9716 33.3181 43.7527C33.0511 43.5339 32.6412 43.4244 32.0885 43.4244H31.1315V46.0951H32.0662ZM35.9164 50.3125H34.5644C34.3085 50.3125 34.123 50.2124 34.008 50.0121L32.3166 47.436C32.2536 47.3395 32.1831 47.2709 32.1052 47.2301C32.031 47.1893 31.9197 47.1689 31.7714 47.1689H31.1315V50.3125H29.6348V42.2672H32.0885C32.6338 42.2672 33.1011 42.3247 33.4906 42.4396C33.8838 42.5509 34.2046 42.7086 34.4531 42.9126C34.7054 43.1166 34.8908 43.3614 35.0095 43.647C35.1282 43.9289 35.1876 44.2405 35.1876 44.5817C35.1876 44.8525 35.1468 45.1084 35.0652 45.3495C34.9873 45.5906 34.8723 45.8095 34.7202 46.0061C34.5718 46.2027 34.3864 46.3751 34.1638 46.5235C33.945 46.6719 33.6946 46.7887 33.4127 46.874C33.5091 46.9297 33.5982 46.9964 33.6798 47.0743C33.7614 47.1485 33.8356 47.2375 33.9023 47.3414L35.9164 50.3125ZM43.3087 46.2787V49.5336C42.9007 49.834 42.4649 50.0547 42.0012 50.1957C41.5413 50.3329 41.0479 50.4015 40.5212 50.4015C39.8647 50.4015 39.2694 50.2995 38.7352 50.0955C38.2048 49.8915 37.7504 49.6077 37.3721 49.2442C36.9974 48.8807 36.7081 48.4468 36.5041 47.9423C36.3001 47.4378 36.1981 46.887 36.1981 46.2898C36.1981 45.6852 36.2964 45.1307 36.493 44.6262C36.6896 44.1218 36.9678 43.6878 37.3276 43.3243C37.6911 42.9608 38.1306 42.6789 38.6462 42.4786C39.1618 42.2783 39.7404 42.1781 40.3821 42.1781C40.7085 42.1781 41.0127 42.2041 41.2946 42.256C41.5802 42.308 41.8436 42.3803 42.0847 42.473C42.3295 42.562 42.552 42.6715 42.7523 42.8013C42.9526 42.9311 43.1362 43.0739 43.3032 43.2297L42.8747 43.9085C42.808 44.0161 42.7208 44.0828 42.6132 44.1088C42.5057 44.1311 42.3888 44.1032 42.2627 44.0253C42.1403 43.9549 42.0179 43.8844 41.8955 43.8139C41.7731 43.7434 41.6358 43.6822 41.4838 43.6303C41.3354 43.5784 41.1666 43.5357 40.9775 43.5023C40.792 43.469 40.5769 43.4523 40.3321 43.4523C39.9352 43.4523 39.5754 43.519 39.2527 43.6526C38.9337 43.7861 38.661 43.9771 38.4348 44.2256C38.2085 44.4742 38.0342 44.7728 37.9118 45.1214C37.7894 45.4701 37.7282 45.8596 37.7282 46.2898C37.7282 46.7498 37.7931 47.1615 37.9229 47.525C38.0564 47.8848 38.2419 48.1908 38.4793 48.443C38.7204 48.6916 39.0097 48.8826 39.3472 49.0161C39.6848 49.1459 40.0613 49.2109 40.4767 49.2109C40.7735 49.2109 41.0387 49.1793 41.2723 49.1163C41.506 49.0532 41.7341 48.9679 41.9567 48.8603V47.4026H40.9441C40.8476 47.4026 40.7716 47.3766 40.716 47.3247C40.664 47.2691 40.6381 47.2023 40.6381 47.1244V46.2787H43.3087ZM46.253 43.4578V45.6889H49.0683V46.8407H46.253V49.1163H49.8249V50.3125H44.7507V42.2672H49.8249V43.4578H46.253Z"
  />
</svg>