<?xml version="1.0" encoding="utf-8"?>
<!-- Generator: Adobe Illustrator 24.0.1, SVG Export Plug-In . SVG Version: 6.00 Build 0)  -->
<svg version="1.1" id="Layer_1" xmlns="http://www.w3.org/2000/svg" xmlns:xlink="http://www.w3.org/1999/xlink" x="0px" y="0px"
	 viewBox="0 0 30 30" style="enable-background:new 0 0 30 30;" xml:space="preserve">
<g transform="translate(0.000000,5000.000000) scale(0.100000,-0.100000)">
	<path fill="white" d="M49.6,49985.3c-2.4-0.6-4.2-2.6-4.5-5.1c-0.1-0.4-0.1-6.6-0.1-18.4c0-9.8,0-17.8,0-17.9c0-0.1-4-0.1-19.7-0.1
		c-21.3,0-20.1,0-21.2-0.4c-1.4-0.6-2.7-1.8-3.2-3c-0.1-0.1-0.2-0.4-0.2-0.6c-0.4-0.9-0.3,4.5-0.4-92.3c0-84.8,0-92.2,0.2-94.7
		c0.2-2.7,0.7-5.8,1.2-8c0.1-0.5,0.2-0.9,0.2-0.9c0.1-0.4,0.4-1.7,0.5-1.9c0-0.1,0.2-0.6,0.4-1.1c0.2-0.5,0.3-1,0.4-1
		c0,0,0.1-0.1,0.1-0.2c0-0.1,0.4-1.2,0.7-1.8c0.1-0.1,0.2-0.5,0.3-0.8c0.3-0.7,1.4-2.9,1.9-3.7c1.4-2.4,3-4.4,4.8-6.3
		c1.8-1.8,3.3-3,5.3-4.2c1-0.6,3.3-1.8,3.5-1.8c0.1,0,0.1,0,0.2-0.1c0.1-0.1,2.3-0.8,2.7-0.9c0.1,0,0.4-0.1,0.7-0.2
		c0.4-0.1,1-0.2,1.7-0.3c0.1,0,0.4-0.1,0.8-0.1c0.5-0.1,21.3-0.1,119.2-0.1c113.5,0,118.6,0,119.7,0.1c1.6,0.2,1.7,0.2,2.7,0.4
		c1.3,0.2,3.2,0.7,4.3,1c0.5,0.2,1.1,0.3,1.3,0.4c0.2,0.1,0.5,0.2,0.6,0.2s0.3,0.1,0.3,0.1c0,0,0.6,0.2,1.2,0.4
		c7.4,2.9,13.6,7.8,18.2,14.4c2.1,3,4.1,7.1,5.2,10.5c0.1,0.3,0.2,0.7,0.3,0.8c0,0.1,0.1,0.2,0,0.2c0,0,0,0.2,0.1,0.3
		c0.1,0.3,0.5,1.6,0.5,2c0,0.1,0.1,0.4,0.2,0.8c0.4,1.8,0.6,3.6,0.8,6c0,0.9,0.1,39.4,0.1,111.9c0,98.9,0,110.7-0.1,111.3
		c-0.4,2.3-2.1,4.2-4.4,4.8l-0.7,0.2l-122.5,0C51.4,49985.4,50.2,49985.4,49.6,49985.3z M288.5,49865.7c0-110.1,0-108.2-0.3-110.2
		c0-0.2-0.1-0.4-0.1-0.5c0-0.1,0-0.3-0.1-0.5c0-0.2-0.1-0.8-0.3-1.4c-0.1-0.6-0.3-1.1-0.3-1.1c0-0.1-0.1-0.2-0.1-0.4
		c0-0.1-0.1-0.2-0.1-0.3c0,0-0.5-1.5-0.6-1.7c0-0.1-0.2-0.5-0.4-1c-0.7-1.9-2-4-3.3-5.8c-3.1-4.3-7.5-7.6-12.4-9.5
		c-0.7-0.3-2.1-0.8-2.3-0.8c-0.1,0-0.3-0.1-0.6-0.1c-0.3-0.1-0.6-0.1-0.7-0.2c-0.1,0-0.4-0.1-0.7-0.2c-0.8-0.2-2.8-0.5-3.7-0.6
		c-0.4,0-212.8-0.1-212.9,0c0,0,0.2,0.3,0.4,0.7c2,3,3.8,7.1,4.8,10.7c0.3,1,0.6,2.2,0.6,2.4c0,0.2,0.1,0.4,0.2,1
		c0.2,0.7,0.5,2.7,0.6,3.9c0.2,1.6,0.2,1.8,0.4,3.9c0,0.7,0.1,40.1,0.1,110.3v109.2l115.8,0l115.8,0L288.5,49865.7z M45,49842.9
		c0-66.8-0.1-89.3-0.1-89.8c0-0.4-0.1-0.9-0.1-1.1c-0.1-1.1-0.4-3-0.5-3.5c-0.7-3.2-1.4-5.4-2.6-7.6c-1.1-2.1-2.2-3.7-3.7-5.2
		c-1.7-1.7-3.3-2.8-5.2-3.5c-1.5-0.5-2.7-0.7-4.2-0.7c-1,0-1,0-1.9,0.2c-1.2,0.2-2.8,0.8-3.8,1.3c-3.6,2-6.6,5.8-8.4,10.9
		c-0.4,1.2-1.2,3.8-1.3,4.5c0,0.1-0.1,0.3-0.1,0.4c-0.1,0.3-0.5,2.8-0.6,3.8c-0.3,2.8-0.3,1.4-0.3,91.2l0,88.2h16.4h16.4L45,49842.9
		z"/>
	<path fill="white" d="M255.4,49953.1c-1-0.1-3.2-0.4-3.9-0.5c-0.4-0.1-0.9-0.2-1-0.2c-0.7-0.1-2.5-0.6-2.9-0.8c-0.1,0-0.4-0.2-0.7-0.3
		c-1.6-0.6-3.6-1.8-4.9-2.9c-3.4-3-4.9-7.5-4-12.7c0.2-1.4,0.9-3,1.7-4.2c1.4-2.1,3.7-3.9,6.7-5.1c1.2-0.5,3.9-1.4,4.9-1.6
		c0.1,0,0.6-0.2,1.1-0.3c0.5-0.1,1.2-0.3,1.6-0.4c0.3-0.1,0.8-0.2,0.9-0.2c0.1,0,0.5-0.1,0.7-0.2c0.3,0,0.5-0.1,0.6-0.1
		c0.1,0,0.6-0.1,1.1-0.2c2.6-0.5,4.2-1,5.3-1.5c1.4-0.7,2-1.4,2-2.5c0-0.4,0-0.6-0.2-1c-0.3-0.6-0.6-0.9-1.3-1.2
		c-1.1-0.5-2.2-0.7-4.8-0.7c-2.3,0-3.2,0.1-4.4,0.5c-1.2,0.4-2.1,1.2-2.5,2.4c-0.2,0.6-0.4,1.6-0.4,2.3v0.5h-7h-7l0.1-1.1
		c0.2-3.4,0.9-5.9,2.4-8.1c2-3,5.3-5.1,10-6.1c0.5-0.1,1-0.2,1.2-0.2c0.2,0,0.4-0.1,0.5-0.1c0.4-0.1,1.2-0.2,2.1-0.3
		c2.9-0.3,7.2-0.4,9.5-0.2c0.4,0,0.9,0.1,1.2,0.1c0.8,0.1,2.3,0.4,3.4,0.6c5.8,1.4,9.4,4.3,11.3,8.8c0.3,0.6,0.7,2.2,0.8,2.9
		c0,0.1,0.1,0.5,0.1,0.8c0.1,0.8,0.1,3.8,0,4.5c-0.4,2.5-1.3,4.3-3,6c-1.3,1.4-2.7,2.3-5.1,3.3c-0.8,0.3-2.5,1-2.9,1
		c-0.1,0-0.2,0.1-0.2,0.1c-0.1,0-2.8,0.8-3.5,0.9c-0.2,0-0.7,0.2-1.1,0.2c-0.4,0.1-0.8,0.2-0.9,0.2c-0.6,0.1-4.2,0.9-5.1,1.1
		c-3,0.8-4.5,1.7-4.9,3c-0.4,1.7,1.2,3,4.1,3.4c0.8,0.1,2.5,0.1,3.2,0.1c0.7-0.1,1.7-0.4,2.3-0.7c1.2-0.6,2.2-2.1,2.2-3.4
		c0-0.2,0-0.4,0-0.6l0-0.2h6.9h6.9l0,1.2c0,1.1-0.1,1.8-0.5,3.2c-0.1,0.5-0.3,1.1-0.8,2c-1.2,2.5-3.4,4.6-6.3,6
		c-0.4,0.2-0.9,0.4-1,0.5c-1,0.4-1.5,0.6-2.3,0.8c-0.8,0.2-1.6,0.4-2.1,0.5c-0.1,0-0.3,0.1-0.4,0.1c-0.1,0-0.3,0.1-0.4,0.1
		c-0.2,0-0.5,0.1-0.7,0.1c-0.2,0-0.6,0.1-0.9,0.1c-0.5,0.1-0.9,0.1-1.5,0.2C261.2,49953.1,256,49953.2,255.4,49953.1z"/>
	<path fill="white" d="M69.8,49929.6l0-22.8h6.7h6.7l0,10.7c0,5.9,0,10.9,0,11c0,0.3,0,0.3,2.1-2.1c1.1-1.3,2.9-3.3,3.9-4.5c1-1.2,2.6-3,3.5-4.1
		c0.9-1.1,3.1-3.6,4.8-5.5c1.7-2,3.5-4,4-4.6l0.9-1l6.4,0l6.4,0l0,22.8l0,22.8h-6.8h-6.8v-11.1c0-6.1,0-11.1,0-11.1
		c0,0-5.8,6.7-16.3,19l-2.8,3.2l-6.4,0h-6.5L69.8,49929.6z"/>
	<path fill="white" d="M125,49929.5v-22.8l20,0l20,0l0,5.5l0,5.5h-12.6h-12.6v3.4v3.4h10.6h10.6v5.3v5.3l-10.6,0l-10.6,0l0,3.1c0,1.7,0,3.1,0,3.1
		c0,0.1,4.3,0.1,12.4,0.1h12.4v5.5v5.5h-19.8H125V49929.5z"/>
	<path fill="white" d="M168.3,49952.3c0-0.1,0.3-1.6,0.5-2.3c0-0.2,0.1-0.6,0.2-1.1c0-0.1,0.1-0.6,0.3-1.1c0.1-0.5,0.4-1.6,0.6-2.4
		c0.2-0.8,0.4-1.6,0.4-1.8c0.1-0.2,0.1-0.5,0.2-0.7c0-0.2,0.2-0.8,0.3-1.4c0.1-0.6,0.3-1.4,0.4-1.7c0.1-0.3,0.2-1,0.4-1.7
		c0.2-0.6,0.3-1.3,0.3-1.4c0-0.1,0.1-0.6,0.3-1.2c0.1-0.5,0.3-1.3,0.4-1.7c0.1-0.4,0.2-1,0.3-1.3c0.1-0.3,0.2-0.7,0.2-0.8
		c0-0.1,0.2-0.8,0.3-1.4c0.2-0.6,0.3-1.3,0.3-1.4c0-0.1,0.2-0.7,0.3-1.4c0.2-0.6,0.3-1.4,0.4-1.6c0.1-0.2,0.3-1.4,0.6-2.5
		c0.3-1.2,0.5-2.2,0.6-2.4c0-0.1,0.1-0.6,0.2-1c0.1-0.4,0.2-0.8,0.2-0.9c0-0.1,0.1-0.3,0.1-0.5c0.1-0.3,0.1-0.5,0.2-0.8
		c0.1-0.4,1.6-6.7,2-8.6c0.2-0.8,0.2-0.9,0.3-1.2c0-0.1,0.1-0.5,0.2-0.8l0.1-0.6l8,0c4.4,0,8.1,0,8.1,0c0,0,0.1,0.2,0.1,0.3
		c0,0.2,0.1,0.3,0.1,0.4c0,0.1,0.1,0.2,0.1,0.3c0.1,0.3,0.4,1.8,0.5,2.3c0.1,0.3,0.1,0.6,0.1,0.7c0,0.1,0.1,0.6,0.2,1.1
		s0.2,1,0.2,1.1c0,0.1,0.1,0.4,0.1,0.8c0.2,1,0.6,2.8,0.6,3c0,0.1,0.1,0.3,0.1,0.4c0,0.1,0.8,3.5,1.1,5.2c0.1,0.3,0.2,1.1,0.4,1.8
		c0.1,0.7,0.3,1.2,0.3,1.3c0,0.1,0.2,0.8,0.3,1.6c0.2,0.8,0.3,1.6,0.4,1.7c0.1,0.3,1,4.6,1,4.9c0.1,0.5,0.2,0.9,0.3,0.9
		c0.1,0,0.3-0.5,0.3-1c0-0.2,0.1-0.3,0.1-0.4s0.1-0.6,0.3-1.3c0.1-0.6,0.3-1.2,0.3-1.3c0-0.1,0.2-0.8,0.3-1.5
		c0.2-0.7,0.4-1.9,0.6-2.6c0.1-0.7,0.3-1.5,0.4-1.8c0.1-0.3,0.2-0.8,0.3-1.3c0.1-0.4,0.3-1.3,0.4-1.9c0.1-0.6,0.3-1.4,0.4-1.7
		c0.1-0.3,0.1-0.7,0.2-0.9c0-0.2,0.2-1.1,0.4-2.1c0.2-1,0.4-1.9,0.4-2.1c0-0.2,0.1-0.4,0.1-0.5c0-0.2,0.4-2,0.5-2.2
		c0-0.1,0.2-0.9,0.4-1.7c0.2-0.8,0.4-1.9,0.5-2.2c0.1-0.4,0.2-0.8,0.2-0.9c0-0.1,0.1-0.3,0.1-0.3c0-0.1,1.8-0.1,8-0.1
		c4.4,0,8,0,8.1,0.1c0.1,0,0.2,0.6,0.4,1.3c0,0.1,0.1,0.6,0.3,1.2c0.1,0.6,0.3,1.3,0.4,1.6c0.1,0.3,0.1,0.6,0.2,0.7
		c0,0.2,0.5,2,0.7,2.8c0.1,0.4,0.2,0.8,0.2,0.9c0,0.1,0.1,0.3,0.1,0.3c0,0,0.2,1.1,0.4,1.6c0.1,0.2,0.1,0.6,0.2,0.8
		c0.1,0.3,0.8,3.6,1.2,4.9c0.1,0.3,0.1,0.6,0.1,0.7c0,0.1,0.3,1.3,0.6,2.7c0.3,1.4,0.6,2.7,0.7,2.8c0,0.2,0.2,0.7,0.3,1.2
		c0.1,0.5,0.3,1.4,0.5,2.1c0.1,0.7,0.3,1.3,0.3,1.3c0,0.2,0.2,0.9,0.2,1c0,0.1,0.1,0.6,0.3,1.1c0.3,1.1,0.9,3.8,1.3,5.6
		c0.1,0.6,0.3,1.4,0.4,1.7c0.1,0.3,0.1,0.6,0.1,0.7c0,0.2,0.4,1.7,0.8,3.2c0.1,0.5,0.2,1,0.3,1.1c0.1,0.3,0.9,3.9,1,4
		c0,0.1-0.3,0.1-7.3,0.1h-7.3l-0.1-0.3c0-0.2-0.1-0.4-0.1-0.5s-0.1-0.3-0.1-0.4c0-0.2-0.1-0.3-0.1-0.4c-0.2-1.2-0.4-1.9-0.4-2
		c0-0.1-0.1-0.6-0.2-1c-0.1-0.4-0.2-0.9-0.2-1c0-0.1-0.1-0.4-0.1-0.7c-0.1-0.5-0.2-1.1-0.3-1.4c0-0.1-0.1-0.5-0.2-0.8
		s-0.1-0.7-0.2-0.9c0-0.1-0.1-0.3-0.1-0.4c-0.2-1-0.7-3.4-1.2-6c-0.1-0.7-0.3-1.7-0.4-2.2c-0.1-0.5-0.2-1.2-0.2-1.4
		c0-0.2-0.1-0.5-0.1-0.6c0-0.1-0.1-0.2-0.1-0.2c0,0-0.1-0.5-0.2-1.4c-0.1-0.4-0.2-0.9-0.2-1c0-0.3-0.5-2.7-0.6-2.9
		c-0.1-0.4-0.3-0.1-0.4,0.4c0,0-0.1,0.3-0.1,0.5c-0.1,0.3-0.1,0.6-0.1,0.6c-0.1,0.4-0.5,2.5-0.6,2.7c0,0.1-0.1,0.5-0.2,0.8
		c-0.1,0.3-0.1,0.6-0.2,0.7c0,0.1-0.2,0.8-0.3,1.5c-0.1,0.7-0.3,1.4-0.3,1.5c0,0.2-0.7,3.1-0.9,4.3c-0.1,0.4-0.2,0.8-0.2,0.9
		c0,0.1-0.2,0.8-0.3,1.5c-0.1,0.7-0.4,2-0.6,2.8c-0.2,0.8-0.3,1.6-0.4,1.6c0,0.1-0.1,0.2-0.1,0.4c0,0.1-0.2,0.8-0.3,1.5
		c-0.2,0.7-0.3,1.4-0.3,1.5c0,0.1-0.1,0.3-0.1,0.3c0,0.1-0.1,0.2-0.1,0.4c0,0.1-0.1,0.4-0.1,0.6c0,0.2-0.1,0.4-0.1,0.6
		s-0.1,0.3-0.1,0.4l0,0.2l-7.3,0l-7.3,0l-0.2-0.9c-0.1-0.5-0.2-1-0.2-1.1c0-0.1-0.2-0.9-0.3-1.6c-0.1-0.8-0.3-1.5-0.3-1.6
		c0-0.1-0.2-0.8-0.3-1.6c-0.1-0.8-0.3-1.5-0.3-1.6c0-0.1-0.2-0.8-0.3-1.6c-0.1-0.8-0.3-1.5-0.3-1.6c0-0.1-0.2-0.8-0.3-1.6
		c-0.1-0.8-0.3-1.5-0.3-1.6c0-0.1-0.2-0.8-0.3-1.6c-0.1-0.8-0.3-1.5-0.3-1.6c0-0.1-0.2-0.8-0.3-1.6s-0.3-1.5-0.3-1.6
		c0-0.1-0.2-0.8-0.3-1.5c-0.1-0.7-0.3-1.5-0.3-1.6c-0.2-1.2-0.3-1.6-0.4-1.6c-0.1,0-0.2,0.4-0.4,1.6c-0.1,0.8-0.2,1.1-0.3,1.3
		c0,0.1-0.1,0.4-0.1,0.5s-0.1,0.7-0.2,1.3c-0.1,0.5-0.2,1.1-0.2,1.2c0,0.1-0.1,0.6-0.2,1s-0.2,0.9-0.2,1c0,0.1-0.1,0.3-0.1,0.5
		c-0.1,0.4-0.1,0.6-0.6,2.8c-0.2,0.9-0.3,1.7-0.4,1.8c0,0.1-0.1,0.5-0.2,0.8c-0.1,0.3-0.1,0.6-0.1,0.7c0,0.1-0.1,0.3-0.1,0.6
		c0,0.2-0.1,0.4-0.1,0.5c0,0,0,0.1-0.1,0.3c0,0.1-0.1,0.4-0.1,0.6c0,0.2-0.1,0.4-0.1,0.4c0,0,0,0.2-0.1,0.4c0,0.2-0.1,0.5-0.1,0.7
		c0,0.2-0.1,0.4-0.1,0.6c0,0.2-0.3,1.5-0.4,1.9c0,0.1,0,0.2-0.1,0.4c0,0.1-0.1,0.3-0.1,0.4c0,0.1-0.1,0.3-0.1,0.4
		c0,0.1-0.1,0.4-0.1,0.6c0,0.2-0.1,0.5-0.1,0.6c0,0.1-0.2,0.8-0.3,1.6l-0.3,1.5h-7.6C169.9,49952.4,168.3,49952.4,168.3,49952.3z"/>
	<path fill="white" d="M72.3,49859.1v-32.9h48.1h48.1v32.9v32.9h-48.1H72.3V49859.1z"/>
	<path fill="white" d="M186.1,49888.6c0,0,0-4.2,0-9.3l0-9.2l41.8,0l41.8,0v9.3v9.3H228C194.6,49888.7,186.1,49888.7,186.1,49888.6z"/>
	<path fill="white" d="M186.1,49838.8l0-9.3l41.8,0l41.8,0v9.3v9.3h-41.9h-41.9L186.1,49838.8z"/>
	<path fill="white" d="M77.2,49798.3l0-9.3l96.3,0l96.3,0v9.3v9.3h-96.3H77.2L77.2,49798.3z"/>
	<path fill="white" d="M77.2,49757.7c0-8.3,0-9.2,0.1-9.3c0.1,0,43.4,0,96.3,0h96.2v9.3v9.3h-96.3H77.2V49757.7z"/>
</g>
</svg>
