<?xml version="1.0" encoding="utf-8"?>
<!-- Generator: Adobe Illustrator 24.0.1, SVG Export Plug-In . SVG Version: 6.00 Build 0)  -->
<svg version="1.1" id="Capa_1" xmlns="http://www.w3.org/2000/svg" xmlns:xlink="http://www.w3.org/1999/xlink" x="0px" y="0px"
	 viewBox="0 0 25 25" style="enable-background:new 0 0 25 25;" xml:space="preserve">
<g>
	<path d="M24.3,5.9h-5.6V1.6c0-0.4-0.3-0.7-0.7-0.7H0.7C0.3,0.8,0,1.2,0,1.6v18.9c0,2,1.6,3.7,3.7,3.7h17.7c2,0,3.7-1.6,3.7-3.7V6.6
		C25,6.2,24.7,5.9,24.3,5.9z M3.7,22.7c-1.2,0-2.2-1-2.2-2.2V2.3h15.8c0,19.4,0,18.3,0,18.6c0.1,0.7,0.3,1.3,0.7,1.9H3.7z
		 M23.5,20.5c0,1.2-1,2.2-2.2,2.2c-0.2,0-0.3,0-0.4,0c-1.2,0-2.2-1-2.2-2.2V7.4h4.8V20.5z"/>
	<path d="M14.8,4.3H3.9c-0.4,0-0.7,0.3-0.7,0.7s0.3,0.7,0.7,0.7h10.9c0.4,0,0.7-0.3,0.7-0.7S15.2,4.3,14.8,4.3z"/>
	<path d="M14.8,7.5H3.9c-0.4,0-0.7,0.3-0.7,0.7c0,0.4,0.3,0.7,0.7,0.7h10.9c0.4,0,0.7-0.3,0.7-0.7C15.6,7.8,15.2,7.5,14.8,7.5z"/>
	<path d="M14.8,19.2H3.9c-0.4,0-0.7,0.3-0.7,0.7s0.3,0.7,0.7,0.7h10.9c0.4,0,0.7-0.3,0.7-0.7S15.2,19.2,14.8,19.2z"/>
	<path d="M14.8,10.6H9.4c-0.4,0-0.7,0.3-0.7,0.7v5.5c0,0.4,0.3,0.7,0.7,0.7h5.5c0.4,0,0.7-0.3,0.7-0.7v-5.5
		C15.6,10.9,15.2,10.6,14.8,10.6z M14.1,16.1h-4v-4h4V16.1z"/>
	<path d="M3.9,13.2h2.3c0.4,0,0.7-0.3,0.7-0.7s-0.3-0.7-0.7-0.7H3.9c-0.4,0-0.7,0.3-0.7,0.7S3.5,13.2,3.9,13.2z"/>
	<path d="M3.9,16.4h2.3C6.7,16.4,7,16,7,15.6c0-0.4-0.3-0.7-0.7-0.7H3.9c-0.4,0-0.7,0.3-0.7,0.7C3.2,16,3.5,16.4,3.9,16.4z"/>
</g>
</svg>
